<svg width="140" height="40" viewBox="0 0 140 40" fill="none" xmlns="http://www.w3.org/2000/svg">
<rect x="13.616" y="4.76801" width="2.944" height="30.176" fill="#CC525F"/>
<rect x="21.3572" y="6.05341" width="2.944" height="30.176" transform="rotate(30 21.3572 6.05341)" fill="#CC525F"/>
<rect x="30.176" y="18.384" width="2.944" height="30.176" transform="rotate(90 30.176 18.384)" fill="#CC525F"/>
<rect x="28.8906" y="26.1252" width="2.944" height="30.176" transform="rotate(120 28.8906 26.1252)" fill="#CC525F"/>
<rect x="23.9068" y="32.1866" width="2.944" height="30.176" transform="rotate(150 23.9068 32.1866)" fill="#CC525F"/>
<rect x="27.4186" y="11.0372" width="2.944" height="30.176" transform="rotate(60 27.4186 11.0372)" fill="#CC525F"/>
<path d="M52.4236 21.8652C52.4236 22.542 52.2976 23.2296 52.0456 23.928C51.7936 24.6264 51.4084 25.2744 50.89 25.872C50.3788 26.4624 49.7308 26.9376 48.946 27.2976C48.1612 27.6576 47.2396 27.8376 46.1812 27.8376C44.7484 27.8376 43.5244 27.4884 42.5092 26.79C41.5012 26.0844 40.7308 25.116 40.198 23.8848C39.6724 22.6536 39.4096 21.2388 39.4096 19.6404C39.4096 18.0348 39.6724 16.6164 40.198 15.3852C40.7308 14.154 41.5012 13.1892 42.5092 12.4908C43.5244 11.7924 44.7484 11.4432 46.1812 11.4432C47.3692 11.4432 48.3844 11.67 49.2268 12.1236C50.0692 12.5772 50.7424 13.1604 51.2464 13.8732C51.7504 14.586 52.0888 15.3312 52.2616 16.1088C52.3696 16.5624 52.4236 16.9944 52.4236 17.4048H49.5616C49.5616 17.196 49.5472 16.98 49.5184 16.7568C49.4392 16.2096 49.2556 15.7128 48.9676 15.2664C48.6868 14.8128 48.3124 14.4564 47.8444 14.1972C47.3764 13.9308 46.822 13.7976 46.1812 13.7976C45.418 13.7976 44.7448 14.01 44.1616 14.4348C43.5856 14.8596 43.132 15.504 42.8008 16.368C42.4696 17.232 42.304 18.3228 42.304 19.6404C42.304 20.9436 42.4696 22.0308 42.8008 22.902C43.132 23.7732 43.5856 24.4248 44.1616 24.8568C44.7448 25.2888 45.418 25.5048 46.1812 25.5048C46.7284 25.5048 47.2108 25.404 47.6284 25.2024C48.046 25.0008 48.3988 24.7308 48.6868 24.3924C48.9748 24.0468 49.1908 23.658 49.3348 23.226C49.486 22.794 49.5616 22.3404 49.5616 21.8652H52.4236Z" fill="#F5F9FF" fill-opacity="0.95"/>
<path d="M60.446 27.8268C59.2364 27.8268 58.1708 27.5748 57.2492 27.0708C56.3276 26.5596 55.604 25.854 55.0784 24.954C54.56 24.054 54.3008 23.0244 54.3008 21.8652C54.3008 20.6988 54.56 19.6728 55.0784 18.7872C55.604 17.8944 56.3276 17.196 57.2492 16.692C58.1708 16.188 59.2364 15.936 60.446 15.936C61.6556 15.936 62.7212 16.188 63.6428 16.692C64.5644 17.196 65.2844 17.8944 65.8028 18.7872C66.3284 19.6728 66.5912 20.6988 66.5912 21.8652C66.5912 23.0244 66.3284 24.054 65.8028 24.954C65.2844 25.854 64.5644 26.5596 63.6428 27.0708C62.7212 27.5748 61.6556 27.8268 60.446 27.8268ZM60.446 25.5048C61.1012 25.5048 61.6736 25.3536 62.1632 25.0512C62.6528 24.7488 63.0344 24.3276 63.308 23.7876C63.5816 23.2404 63.7184 22.5996 63.7184 21.8652C63.7184 21.1308 63.5816 20.4972 63.308 19.9644C63.0344 19.4244 62.6528 19.0068 62.1632 18.7116C61.6736 18.4164 61.1012 18.2688 60.446 18.2688C59.798 18.2688 59.2256 18.4164 58.7288 18.7116C58.2392 19.0068 57.8576 19.4244 57.584 19.9644C57.3104 20.4972 57.1736 21.1308 57.1736 21.8652C57.1736 22.5996 57.3104 23.2404 57.584 23.7876C57.8576 24.3276 58.2392 24.7488 58.7288 25.0512C59.2256 25.3536 59.798 25.5048 60.446 25.5048Z" fill="#F5F9FF" fill-opacity="0.95"/>
<path d="M76.0692 27.6V22.9452C76.0692 22.5204 76.0692 22.1496 76.0692 21.8328C76.0692 21.5088 76.0692 21.2388 76.0692 21.0228C76.0692 20.742 76.0512 20.4504 76.0152 20.148C75.9792 19.8384 75.9 19.554 75.7776 19.2948C75.6552 19.0356 75.4644 18.8268 75.2052 18.6684C74.9532 18.5028 74.604 18.42 74.1576 18.42C73.7256 18.42 73.3584 18.51 73.056 18.69C72.7608 18.8628 72.516 19.0968 72.3216 19.392C72.1344 19.68 71.9976 20.0112 71.9112 20.3856C71.8248 20.7528 71.7816 21.1308 71.7816 21.5196L70.8312 20.8824C70.8312 19.9392 71.0076 19.0968 71.3604 18.3552C71.7132 17.6136 72.2136 17.0268 72.8616 16.5948C73.5168 16.1556 74.2908 15.936 75.1836 15.936C76.1052 15.936 76.836 16.1304 77.376 16.5192C77.916 16.9008 78.3012 17.4192 78.5316 18.0744C78.7692 18.7296 78.888 19.464 78.888 20.2776C78.888 20.58 78.888 20.9832 78.888 21.4872C78.888 21.984 78.888 22.5708 78.888 23.2476V27.6H76.0692ZM68.9412 27.6V16.1304H71.7816V27.6H68.9412ZM83.154 27.6V22.956C83.154 22.5024 83.154 22.1172 83.154 21.8004C83.154 21.4836 83.154 21.2172 83.154 21.0012C83.154 20.6988 83.136 20.3964 83.1 20.094C83.064 19.7844 82.9848 19.5072 82.8624 19.2624C82.74 19.0104 82.5492 18.8088 82.29 18.6576C82.0308 18.4992 81.678 18.42 81.2316 18.42C80.7924 18.42 80.4216 18.5064 80.1192 18.6792C79.824 18.852 79.5864 19.0824 79.4064 19.3704C79.2264 19.6584 79.0932 19.9824 79.0068 20.3424C78.9276 20.7024 78.888 21.0624 78.888 21.4224L77.9376 20.796C77.9376 19.8816 78.1104 19.0572 78.456 18.3228C78.8016 17.5884 79.2984 17.0088 79.9464 16.584C80.5944 16.152 81.3648 15.936 82.2576 15.936C83.1576 15.936 83.8812 16.1196 84.4284 16.4868C84.9756 16.854 85.3716 17.358 85.6164 17.9988C85.8684 18.6324 85.9944 19.356 85.9944 20.1696C85.9944 20.4864 85.9944 20.8896 85.9944 21.3792C85.9944 21.8688 85.9944 22.4484 85.9944 23.118V27.6H83.154Z" fill="#F5F9FF" fill-opacity="0.95"/>
<path d="M88.7272 32.3196V16.1304H91.5676V32.3196H88.7272ZM95.1856 27.8376C94.2928 27.8376 93.4648 27.6072 92.7016 27.1464C91.9456 26.6784 91.3336 26.0412 90.8656 25.2348C90.4048 24.4284 90.1744 23.5212 90.1744 22.5132C90.1744 22.4844 90.1744 22.4592 90.1744 22.4376C90.1744 22.4088 90.1744 22.3836 90.1744 22.362L91.5784 22.3296C91.5784 22.344 91.5784 22.362 91.5784 22.3836C91.5784 22.4052 91.5784 22.4232 91.5784 22.4376C91.5784 22.9992 91.7188 23.4996 91.9996 23.9388C92.2804 24.3708 92.644 24.7128 93.0904 24.9648C93.544 25.2096 94.0264 25.332 94.5376 25.332C95.3656 25.332 96.0712 25.0476 96.6544 24.4788C97.2376 23.91 97.5292 23.028 97.5292 21.8328C97.5292 20.6304 97.2376 19.752 96.6544 19.1976C96.0784 18.636 95.3728 18.3552 94.5376 18.3552C94.0336 18.3552 93.5548 18.4776 93.1012 18.7224C92.6548 18.96 92.2876 19.2912 91.9996 19.716C91.7188 20.1408 91.5784 20.6376 91.5784 21.2064L90.1744 21.1416C90.1744 20.1264 90.4048 19.2264 90.8656 18.4416C91.3336 17.6568 91.9456 17.0448 92.7016 16.6056C93.4648 16.1592 94.2928 15.936 95.1856 15.936C96.1144 15.936 96.9784 16.1628 97.7776 16.6164C98.584 17.07 99.232 17.736 99.7216 18.6144C100.218 19.4928 100.467 20.5656 100.467 21.8328C100.467 23.136 100.226 24.234 99.7432 25.1268C99.2608 26.0196 98.62 26.6964 97.8208 27.1572C97.0216 27.6108 96.1432 27.8376 95.1856 27.8376Z" fill="#F5F9FF" fill-opacity="0.95"/>
<path d="M106.749 27.8376C105.892 27.8376 105.14 27.7044 104.492 27.438C103.844 27.1644 103.336 26.772 102.969 26.2608C102.602 25.7496 102.418 25.134 102.418 24.414C102.418 23.6292 102.631 22.9848 103.055 22.4808C103.487 21.9696 104.067 21.5772 104.794 21.3036C105.521 21.0228 106.328 20.8428 107.213 20.7636C108.524 20.634 109.438 20.5116 109.957 20.3964C110.482 20.274 110.745 20.0796 110.745 19.8132C110.745 19.806 110.745 19.8024 110.745 19.8024C110.745 19.7952 110.745 19.7916 110.745 19.7916C110.745 19.2876 110.518 18.8988 110.065 18.6252C109.611 18.3516 108.97 18.2148 108.142 18.2148C107.271 18.2148 106.601 18.3696 106.133 18.6792C105.673 18.9816 105.442 19.464 105.442 20.1264H102.634C102.634 19.2264 102.872 18.4668 103.347 17.8476C103.829 17.2212 104.488 16.746 105.323 16.422C106.159 16.098 107.105 15.936 108.164 15.936C109.15 15.936 110.054 16.0836 110.875 16.3788C111.695 16.674 112.354 17.1204 112.851 17.718C113.348 18.3156 113.596 19.0608 113.596 19.9536C113.596 20.1048 113.596 20.256 113.596 20.4072C113.596 20.5584 113.596 20.7096 113.596 20.8608V25.1808C113.596 25.4544 113.603 25.7244 113.618 25.9908C113.639 26.25 113.679 26.484 113.737 26.6928C113.809 26.9232 113.895 27.1176 113.996 27.276C114.097 27.4344 114.176 27.5424 114.233 27.6H111.425C111.375 27.5496 111.303 27.4524 111.209 27.3084C111.123 27.1572 111.044 26.9844 110.972 26.79C110.9 26.574 110.846 26.3436 110.81 26.0988C110.774 25.8468 110.756 25.5696 110.756 25.2672L111.317 25.656C111.101 26.0952 110.77 26.4804 110.324 26.8116C109.885 27.1356 109.359 27.3876 108.747 27.5676C108.135 27.7476 107.469 27.8376 106.749 27.8376ZM107.44 25.602C108.031 25.602 108.578 25.5012 109.082 25.2996C109.586 25.098 109.993 24.7884 110.302 24.3708C110.612 23.946 110.767 23.4024 110.767 22.74V21.2064L111.458 21.984C110.997 22.1568 110.443 22.3008 109.795 22.416C109.147 22.524 108.491 22.6104 107.829 22.6752C106.979 22.7544 106.339 22.902 105.907 23.118C105.482 23.334 105.269 23.6868 105.269 24.1764C105.269 24.6516 105.449 25.008 105.809 25.2456C106.169 25.4832 106.713 25.602 107.44 25.602Z" fill="#F5F9FF" fill-opacity="0.95"/>
<path d="M124.344 27.6V22.5132C124.344 22.2252 124.344 21.9732 124.344 21.7572C124.344 21.534 124.344 21.3324 124.344 21.1524C124.344 20.634 124.269 20.1696 124.117 19.7592C123.973 19.3416 123.721 19.014 123.361 18.7764C123.009 18.5388 122.519 18.42 121.893 18.42C121.345 18.42 120.859 18.5532 120.435 18.8196C120.01 19.0788 119.675 19.4388 119.43 19.8996C119.193 20.3532 119.074 20.8788 119.074 21.4764L118.113 20.8824C118.113 19.9248 118.329 19.0752 118.761 18.3336C119.2 17.5848 119.787 16.998 120.521 16.5732C121.255 16.1484 122.069 15.936 122.962 15.936C123.883 15.936 124.657 16.116 125.284 16.476C125.917 16.836 126.393 17.3472 126.709 18.0096C127.033 18.672 127.195 19.4496 127.195 20.3424C127.195 20.688 127.195 21.0768 127.195 21.5088C127.195 21.9408 127.195 22.3656 127.195 22.7832V27.6H124.344ZM116.233 27.6V16.1304H119.074V27.6H116.233Z" fill="#F5F9FF" fill-opacity="0.95"/>
<path d="M130.289 32.5248C129.95 32.5248 129.648 32.5068 129.382 32.4708C129.115 32.442 128.95 32.4132 128.885 32.3844V30.1704C128.978 30.2136 129.137 30.246 129.36 30.2676C129.59 30.2964 129.828 30.3108 130.073 30.3108C130.469 30.3108 130.811 30.2316 131.099 30.0732C131.394 29.9148 131.646 29.6952 131.855 29.4144C132.064 29.1408 132.229 28.8204 132.352 28.4532L132.6 27.7296L128.647 16.1304H131.617L134.328 25.6992H133.982L136.628 16.1304H139.544L135.527 28.302C135.246 29.1444 134.904 29.8824 134.501 30.516C134.105 31.1496 133.576 31.6428 132.913 31.9956C132.251 32.3484 131.376 32.5248 130.289 32.5248Z" fill="#F5F9FF" fill-opacity="0.95"/>
</svg>
